<?xml version="1.0" encoding="UTF-8"?><svg id="Layer_2" xmlns="http://www.w3.org/2000/svg" viewBox="0 0 887.74 252.47"><defs><style>.cls-1{fill:#009245;}.cls-2{fill:#28336c;}.cls-3{fill:#ccc;}.cls-4{fill:#fbb03b;}</style></defs><g id="Layer_1-2"><circle class="cls-1" cx="54.34" cy="178.29" r="4.51"/><path class="cls-1" d="M90.97,192.3c-2.49,0-4.51,2.02-4.51,4.51s2.02,4.51,4.51,4.51,4.51-2.02,4.51-4.51-2.02-4.51-4.51-4.51Z"/><path class="cls-1" d="M115.77,185.66c-.03-.64-.02-1.24-.02-1.82,0-.19,0-.38,0-.57,0-.95,0-1.91-.01-2.86-.01-2.34-.03-4.77.03-7.18v-14.27c-.6-.61-1.55,0-1.55,0h-5.93c-7.54,0-13.66,6.12-13.66,13.66v12.95c4.99,1.63,8.54,6.49,8.14,12.11s-5.17,10.57-11.03,10.94c-6.87.43-12.59-5.03-12.59-11.8,0-5.24,3.43-9.7,8.17-11.25v-12.95c0-11.59,9.39-20.98,20.98-20.98h7.43c0-2.65.02-5.38.05-8.24v-2.96s-34.05,0-34.05,0c-13.1,0-23.72,10.62-23.72,23.72v2.89c4.99,1.63,8.54,6.49,8.14,12.11s-5.17,10.57-11.03,10.94c-6.87.43-12.59-5.03-12.59-11.8,0-5.24,3.43-9.7,8.17-11.25v-2.89c0-17.14,13.9-31.04,31.04-31.04h34.07v-2.55c-.15-4.82-.16-9.97,0-16.68v-3.17h-34.07c-17.14,0-31.04-13.9-31.04-31.04v-2.89c-4.99-1.63-8.54-6.49-8.14-12.11s5.17-10.57,11.03-10.94c6.87-.43,12.59,5.03,12.59,11.8,0,5.24-3.43,9.7-8.17,11.25v2.89c0,13.1,10.62,23.72,23.72,23.72h34.06v-2.57c-.05-2.86-.08-5.74-.08-8.63h-7.41c-11.59,0-20.98-9.39-20.98-20.98v-12.95c-4.99-1.63-8.54-6.49-8.14-12.11s5.17-10.57,11.03-10.94c6.87-.43,12.59,5.03,12.59,11.8,0,5.24-3.43,9.7-8.17,11.25v12.95c0,7.54,6.12,13.66,13.66,13.66h6.07s.87.55,1.42,0v-14.02c-.06-13.8-.05-27.5-.03-41.48-.89-.94-1.53-1.97-2.09-2.95-4.56-7.96-11.64-12.34-21.63-13.4-1.31-.14-2.61-.21-3.87-.21-7.81,0-14.35,2.6-20,7.95-4.61,4.36-6.67,9.47-6.31,15.6.16,2.78.34,5.92-1.69,8.43-1.96,2.41-4.92,2.95-7.78,3.47-3.08.56-6.11,1.52-9.01,2.85-.15.07-.42.21-.63.33-3.43,1.98-5.85,3.48-8.46,6.93-.21.28-.47.65-.63.97-1.4,2.75-2.59,5.24-3.01,7.85-.95,5.9.56,11.09,4.75,16.33.08.1.22.25.36.41.21.24.48.53.75.86,3.06,3.81,2.62,7.17,2.08,8.84-.53,1.66-2.13,4.64-6.8,5.93-4.72,1.31-8.67,3.35-12.07,6.23-4.18,3.55-6.72,8.46-7.15,13.81-.38,4.74.92,9.39,3.69,13.3,2.53-1.28,5.4-2.13,8.56-2.54.4-.05.8-.08,1.2-.08,4.42,0,8.17,3.1,8.92,7.36.41,2.36-.19,4.82-1.65,6.75-1.45,1.92-3.56,3.1-5.94,3.35-6.09.62-10.13,7.31-10.3,10.75-.33,6.71,3.16,12,9.59,14.51,2.24.87,4.55,1.38,7.08,1.56,3.78.26,6.78,2.01,8.23,4.79,1.96,3.75.4,7.42-.71,9.28-3.64,6.11-1.73,13.56,4.55,17.71,2.76,1.83,5.64,2.88,8.77,3.21.99-3.62,2.6-6.89,4.81-9.73,1.97-2.53,4.59-3.93,7.39-3.93,1.74,0,3.45.55,4.96,1.6,4.05,2.82,4.89,7.92,2.04,12.4-4.97,7.81-3.6,15.73,3.76,21.73,4.3,3.5,9.92,5.43,15.81,5.43,8.9,0,16.86-4.23,20.77-11.05,1.24-2.16,1.71-3.78,1.67-5.78-.1-4.88-.06-9.82-.03-14.59v-1.37s.01-18.65.01-18.65ZM91,218.66c2.09,0,3.9,1.82,3.87,3.86-.04,2.09-1.84,3.84-3.92,3.82-2.08-.02-3.9-1.84-3.87-3.87.03-2.06,1.84-3.82,3.93-3.81ZM72.52,118.05c2.07-.03,3.91,1.74,3.97,3.8.05,2.04-1.77,3.92-3.82,3.94-2.07.02-3.96-1.77-3.97-3.8-.02-2.07,1.77-3.91,3.83-3.94ZM47.82,118.05c2.08.05,3.86,1.87,3.83,3.93-.02,2.05-1.89,3.86-3.94,3.81-2.08-.05-3.91-1.91-3.85-3.92.06-2.09,1.9-3.86,3.96-3.81ZM91,17.54c2.09,0,3.9,1.82,3.86,3.86-.04,2.09-1.84,3.84-3.92,3.82-2.08-.02-3.9-1.84-3.87-3.87.03-2.06,1.84-3.82,3.93-3.81Z"/><path class="cls-1" d="M90.97,51.54c2.49,0,4.51-2.02,4.51-4.51s-2.02-4.51-4.51-4.51-4.51,2.02-4.51,4.51,2.02,4.51,4.51,4.51Z"/><circle class="cls-1" cx="54.34" cy="65.55" r="4.51"/><path class="cls-4" d="M94.63,71.22v-12.95c4.74-1.54,8.17-6,8.17-11.25,0-6.52-5.31-11.83-11.83-11.83s-11.83,5.31-11.83,11.83c0,5.24,3.43,9.7,8.17,11.25v12.95c0,11.57,9.41,20.98,20.98,20.98h7.41c0-2.44.02-4.88.06-7.32h-7.47c-7.53,0-13.66-6.13-13.66-13.66ZM90.97,42.52c2.49,0,4.51,2.02,4.51,4.51s-2.02,4.51-4.51,4.51-4.51-2.02-4.51-4.51,2.02-4.51,4.51-4.51Z"/><path class="cls-4" d="M58,79.68v-2.89c4.74-1.54,8.17-6,8.17-11.25,0-6.52-5.31-11.83-11.83-11.83s-11.83,5.31-11.83,11.83c0,5.24,3.43,9.7,8.17,11.25v2.89c0,17.11,13.92,31.04,31.04,31.04h34.07v-7.32h-34.07c-13.08,0-23.72-10.64-23.72-23.72ZM54.34,61.04c2.49,0,4.51,2.02,4.51,4.51s-2.02,4.51-4.51,4.51-4.51-2.02-4.51-4.51,2.02-4.51,4.51-4.51Z"/><path class="cls-4" d="M87.31,172.62v12.95c-4.74,1.54-8.17,6-8.17,11.25,0,6.52,5.31,11.83,11.83,11.83s11.83-5.31,11.83-11.83c0-5.24-3.43-9.7-8.17-11.25v-12.95c0-7.53,6.13-13.66,13.66-13.66h7.46c-.03-2.38-.04-4.81-.04-7.32h-7.43c-11.57,0-20.98,9.41-20.98,20.98ZM90.97,201.32c-2.49,0-4.51-2.02-4.51-4.51s2.02-4.51,4.51-4.51,4.51,2.02,4.51,4.51-2.02,4.51-4.51,4.51Z"/><path class="cls-4" d="M50.68,164.16v2.89c-4.74,1.54-8.17,6-8.17,11.25,0,6.52,5.31,11.83,11.83,11.83s11.83-5.31,11.83-11.83c0-5.24-3.43-9.7-8.17-11.25v-2.89c0-13.08,10.64-23.72,23.72-23.72h34.06l.02-7.32h-34.08c-17.11,0-31.04,13.92-31.04,31.04ZM54.34,182.8c-2.49,0-4.51-2.02-4.51-4.51s2.02-4.51,4.51-4.51,4.51,2.02,4.51,4.51-2.02,4.51-4.51,4.51Z"/><polygon class="cls-2" points="93.48 250.03 93.48 252.47 93.48 252.47 93.48 250.03 93.48 250.03"/><path class="cls-2" d="M93.48,250.03h0c2.43,0,4.87-.27,7.25-.81,5.95-1.36,11.5-3.61,16.34-7.54,2.54-2.06,4.71-4.43,6.53-7.13.34-.51.65-.93,1.01-.93.26,0,.54.2.89.73,5.43,8.12,13.15,12.51,22.22,14.7,2.71.65,5.48.98,8.25.98,3.07,0,6.15-.41,9.13-1.24.02,0,.05-.01.07-.02,12.75-3.6,21.92-10.97,25.43-24.25.32-1.21.8-1.9,2.17-2.19,1.96-.41,3.1-1.88,2.94-3.91-.16-1.97-1.35-3.28-3.4-3.56-1.36-.19-2.74-.36-4.11-.39-.08,0-.15,0-.22,0-2.99,0-4.45,1.43-4.54,4.5-.13,4.37-1.59,8.25-4.15,11.74-5.42,7.4-14.51,11.33-23.62,11.33-6.32,0-12.66-1.89-17.8-5.82-3.03-2.32-5.05-5.42-7.33-8.37-1.54-1.99-1.96-3.9-1.93-6.23.07-5.76.05-11.52.01-17.28-.02-3.07-1.49-4.88-3.87-4.95-.04,0-.09,0-.13,0-2.39,0-3.93,1.88-3.95,4.98-.04,5.27-.09,10.55.02,15.82.06,3.05-.72,5.53-2.32,8.3-5.02,8.74-14.93,13.5-25.01,13.5-6.69,0-13.45-2.1-18.89-6.53-9.21-7.5-11.12-18.21-4.8-28.13,1.46-2.3,1.2-4.45-.71-5.78-.7-.49-1.44-.73-2.17-.73-1.25,0-2.49.69-3.54,2.04-2.18,2.81-3.57,6.02-4.3,9.45-.38,1.77-1.22,2.26-2.77,2.26-.08,0-.17,0-.26,0-4.68-.14-8.92-1.54-12.8-4.11-8.36-5.53-11.11-15.78-6.05-24.28,2.14-3.59.54-6.41-3.67-6.71-2.95-.21-5.77-.81-8.51-1.88-8.44-3.29-13.12-10.55-12.69-19.29.29-5.89,6.19-14.5,14.68-15.36,2.26-.23,3.62-2.4,3.27-4.39-.34-1.93-2.07-3.33-4.12-3.33-.19,0-.38.01-.58.04-3.01.38-5.89,1.25-8.45,2.9-.58.37-1.06.56-1.5.56-.61,0-1.14-.36-1.76-1.08-9.13-10.7-7.87-26.41,2.83-35.51,4.1-3.49,8.76-5.78,13.92-7.21,3.82-1.06,4.69-3.95,2.22-7.01-.36-.44-.77-.84-1.12-1.28-4.74-5.91-6.99-12.51-5.76-20.15.54-3.36,1.97-6.32,3.48-9.29,1.1-2.15.49-4.28-1.29-5.34-.64-.38-1.31-.57-1.97-.57-1.23,0-2.43.66-3.33,1.96-.87,1.26-1.64,2.62-2.25,4.03-4.38,10.17-3.71,20.08,1.79,29.63.93,1.61.79,2.25-.95,3.02-7.31,3.26-13.12,8.27-17.26,15.19-1.76,2.94-2.74,6.16-3.72,9.38-.1,3.46-.24,8.68-.34,12.14,1.55,6.33,4.11,12.15,8.56,17.01.65.71.8,1.32.2,2.13-10.28,14-3.01,34.5,16.18,40.09,2.58.75,2.92,1.6,2.31,4.13-2.86,11.87,4,24.16,16.27,29.63,3.97,1.77,8.11,2.82,12.46,2.86,1.4.01,2.23.36,2.62,1.85,3.61,13.76,13.09,21.28,26.42,24.64l.07.02c2.75.69,5.56,1.05,8.38,1.05h0s0,0,0,0Z"/><path class="cls-2" d="M38.74,47.34c.78,0,1.65-.21,2.59-.65,3.26-1.5,6.64-2.58,10.17-3.22,5.37-.98,5.79-1.41,5.47-6.81-.45-7.75,2.32-14.21,7.83-19.43,6.68-6.32,14.56-9.29,23.36-9.29,1.44,0,2.9.08,4.38.24,10.99,1.16,19.73,6.01,25.35,15.83.44.77.92,1.56,1.54,2.17.89.87,1.2,1.84,1.2,3.04-.02,13.88-.04,27.75.02,41.63v12.66c-.1,5.76-.1,11.52.01,17.28v13.16c-.12,5.52-.16,11.04.02,16.55l-.04,12.94c-.06,5.68-.07,11.36,0,17.04v12.82c-.09,3.33-.03,6.65-.02,9.98,0,.73-.02,1.46.01,2.19.12,2.99,1.63,4.81,3.96,4.81.03,0,.06,0,.08,0,2.3-.04,3.77-1.8,3.91-4.69.04-.81.02-1.62.02-2.43,0-25.24,0-50.48,0-75.72,0-25.73,0-51.45,0-77.18,0-1.04-.38-2.29.39-3.07,2.02-2.07,3.04-4.78,4.8-7.01,6.39-8.09,16.59-12.26,26.82-12.26,8.47,0,16.95,2.86,23.29,8.7,9.91,9.14,11.21,24.27,3.13,32.27-1.75,1.74-1.43,3.97.16,5.44.77.72,1.67,1.08,2.59,1.08,1.04,0,2.11-.46,3.07-1.41,2.41-2.36,4.19-5.18,5.31-8.35.41-1.16.92-1.64,1.79-1.64.32,0,.68.07,1.11.19,6.73,1.91,12.56,5.21,17.06,10.65,1.65,2,3.06,2.98,4.41,2.98.76,0,1.5-.32,2.25-.94,2.02-1.67,1.81-4.09-.61-7.04-5.61-6.82-12.78-11.17-21.31-13.25-1.83-.45-2.73-1.11-2.73-3.21.01-3.09-.74-6.1-1.83-9.01C192.89,9.87,177.94.05,160.68.05c-1.93,0-3.89.12-5.87.38-12.36,1.58-22.39,7.33-29.29,17.98-.36.56-.65.82-.92.82-.3,0-.58-.31-.92-.87-1.48-2.44-3.28-4.63-5.31-6.64-7.7-7.59-18.46-11.71-29.48-11.71-5.86,0-11.79,1.17-17.37,3.6-13.26,5.79-21.49,15.64-22.49,30.6-.1,1.45-.78,1.94-2.03,2.22-3.1.7-6.07,1.78-8.92,3.19-2.69,1.33-3.64,3.28-2.69,5.42.68,1.52,1.84,2.32,3.34,2.32Z"/><path class="cls-2" d="M223.82,70.69c-.34,6.4-2.63,11.96-6.91,16.74-3.06,3.43-2.2,6.29,2.2,7.55,5.14,1.47,9.85,3.75,13.83,7.38,5.83,5.31,9.05,11.9,8.71,19.82-.31,7.3-3.63,13.36-8.91,18.37-3.16,3-3.2,4.52-.28,7.76,3,3.33,4.73,7.14,4.59,11.91.05,1.91-.23,3.97-.99,5.99-3.15,8.31-12.57,13.25-20.73,13.25-3.76,0-7.26-1.05-9.75-3.3-.83-.75-1.73-1.09-2.59-1.09-1.13,0-2.21.59-2.99,1.59-1.44,1.85-1.08,3.94,1.05,5.74,2.73,2.31,5.92,3.75,9.39,4.35,1.91.33,2.85,1.29,3.38,2.97.39,1.24.7,2.48.8,3.79.58,7.06-2.43,12.36-7.9,16.54-2.43,1.85-2.87,3.96-1.5,5.86.77,1.08,1.81,1.65,2.98,1.65,1,0,2.1-.41,3.22-1.25,7.65-5.76,11.66-13.31,11.19-23.04-.1-2.18-1.96-4.72-.78-6.26,1.11-1.45,3.94-1.52,5.94-2.37,16.14-6.89,22.22-24.86,12.87-38.56-.86-1.26-.41-1.95.41-2.92,6.81-8.07,9.88-17.33,7.87-27.8-2.32-12.09-9.88-20.17-20.76-25.33-1.82-.86-2.26-1.47-1.13-3.32,2.89-4.72,4.36-9.91,4.51-15.47.07-2.79-1.38-4.71-3.7-4.79-.05,0-.1,0-.15,0-2.16,0-3.74,1.66-3.88,4.26Z"/><path class="cls-2" d="M204.68,120.58c-.13-.01-.26-.02-.39-.02-1.9,0-3.45,1.51-3.82,3.85-1.77,11.27-7.64,19.06-18.89,22.33-2.72.79-4,2.85-3.35,5.03.52,1.74,1.93,2.69,3.86,2.69.52,0,1.09-.07,1.68-.22,13.21-3.23,23.66-15.69,24.49-29.21.14-2.28-1.43-4.23-3.58-4.46Z"/><path class="cls-2" d="M155.13,46.47c-.8-.39-1.59-.57-2.33-.57-1.9,0-3.44,1.19-3.76,3.17-.37,2.29.99,3.62,2.86,4.57,3.49,1.77,6.23,4.34,8.28,7.66,2.77,4.48,3.7,9.44,3.73,14.63.02,2.86,1.33,4.39,3.69,4.45.04,0,.09,0,.13,0,2.24,0,3.66-1.46,3.81-3.98.4-6.73-1.04-13.05-4.42-18.89-2.85-4.9-6.91-8.56-11.98-11.03Z"/><path class="cls-2" d="M171.19,184.81c-.65-1.48-1.82-2.25-3.34-2.25-.79,0-1.67.21-2.63.62-2.91,1.28-5.63,2.89-8.05,4.95-5.21,4.43-8.51,9.92-9.26,16.92-.07,2.17,1.34,4,3.37,4.26.19.02.38.04.57.04,1.86,0,3.41-1.2,3.79-3.34.61-3.42,1.73-6.56,3.96-9.26,2.43-2.95,5.55-4.91,8.97-6.51,2.69-1.25,3.58-3.21,2.61-5.42Z"/><path class="cls-2" d="M148.89,124.63c-.08,3.64,1.36,5.67,3.86,5.75.05,0,.1,0,.16,0,2.41,0,3.86-1.88,3.94-5.2.11-4.63,1.89-8.24,6.03-10.62,2.45-1.41,3.1-3.74,1.88-5.71-.73-1.17-1.83-1.79-3.12-1.79-.81,0-1.7.24-2.63.74-6.79,3.68-9.58,9.74-10.12,16.83Z"/><circle class="cls-3" cx="90.97" cy="21.39" r="4.7"/><circle class="cls-3" cx="72.59" cy="121.92" r="4.7"/><circle class="cls-3" cx="47.75" cy="121.92" r="4.7"/><circle class="cls-3" cx="90.97" cy="222.5" r="4.7"/><path class="cls-2" d="M291.52,128.72c-.88-2.28-1.41-4.74-1.41-7.11,0-7.03,4.83-11.68,11.68-11.68,5.45,0,9.05,2.11,12.21,7.73,4.13,9.66,14.05,14.05,26.17,14.05,14.23,0,23.89-6.85,23.89-16.16,0-8.34-5.97-13.09-21.87-16.34l-13.44-2.64c-25.29-5.01-37.68-17.13-37.68-36.01,0-23.19,20.2-38.56,48.39-38.56,23.19,0,40.67,9.75,46.29,26.26.61,1.76.97,3.6.97,5.88,0,6.32-4.57,10.63-11.33,10.63-5.97,0-9.66-2.37-12.65-7.82-4.22-9.57-12.38-13.53-23.27-13.53-13.09,0-21.78,6.15-21.78,15.46,0,7.82,6.06,12.65,21.08,15.63l13.35,2.72c26.88,5.36,38.47,16.16,38.47,35.4,0,24.77-19.41,40.4-51.03,40.4-26.17,0-42.95-10.45-48.04-24.33Z"/><path class="cls-2" d="M401.14,104.3c0-30.3,17.65-49.54,45.5-49.54s44.62,18.27,44.62,43.83c0,7.11-4.04,11.15-11.15,11.15h-53.75v1.14c0,13.96,8.43,23.1,21.43,23.1,9.4,0,15.55-3.16,22.48-11.33,2.72-2.81,5.01-3.78,8.34-3.78,5.53,0,10.01,3.51,10.01,9.4,0,2.02-.61,4.13-1.76,6.24-6.24,11.59-20.82,18.44-39,18.44-29.42,0-46.73-18.18-46.73-48.66ZM466.57,94.02c-.53-12.3-8.43-20.29-19.67-20.29s-19.41,8.26-20.29,20.29h39.96Z"/><path class="cls-2" d="M504.43,139.43v-71.49c0-8.61,5.09-13.09,12.38-13.09s12.38,4.48,12.38,13.09v5.88h.53c3.95-11.33,14.05-18.8,26.88-18.8,13.61,0,23.1,7.03,26.26,19.32h.53c4.22-11.86,15.46-19.32,29.25-19.32,18.44,0,30.83,12.65,30.83,31.62v52.79c0,8.7-5.27,13.35-12.91,13.35s-12.74-4.65-12.74-13.35v-46.37c0-10.89-5.45-16.86-15.37-16.86s-16.16,7.11-16.16,17.57v45.67c0,8.7-4.74,13.35-12.38,13.35s-12.3-4.65-12.3-13.35v-47.16c0-10.1-5.71-16.07-15.19-16.07s-16.34,7.38-16.34,17.92v45.32c0,8.7-5.27,13.35-12.82,13.35s-12.82-4.65-12.82-13.35Z"/><path class="cls-1" d="M661.92,137.06V37.99c0-8.7,4.92-13.79,13.26-13.79h35.13c38.03,0,60.43,22.66,60.43,62.89s-22.4,63.85-60.43,63.85h-35.13c-8.34,0-13.26-5.09-13.26-13.88ZM707.15,128.98c23.71,0,36.54-14.4,36.54-41.81s-13.17-41.1-36.54-41.1h-18.71v82.91h18.71Z"/><path class="cls-1" d="M787.79,137.06V37.99c0-8.7,4.92-13.79,13.26-13.79h41.89c23.8,0,38.73,12.21,38.73,31.62,0,13.88-10.36,25.47-23.8,27.49v.7c17.21,1.32,29.86,13.88,29.86,30.65,0,22.31-16.78,36.27-43.83,36.27h-42.86c-8.34,0-13.26-5.09-13.26-13.88ZM833.37,76.9c14.14,0,22.22-6.24,22.22-16.95s-7.11-15.99-19.5-15.99h-21.78v32.94h19.06ZM837.15,131.18c15.28,0,23.54-6.5,23.54-18.62s-8.52-18.18-24.15-18.18h-22.22v36.8h22.83Z"/><path class="cls-2" d="M292.09,222.11c-.16-.51-.24-.99-.24-1.48,0-1.18.64-1.93,1.69-1.93.94,0,1.53.48,1.77,1.5.99,4.46,5.24,6.93,10.8,6.93s9.96-3.09,9.96-7.49c0-3.65-2.42-5.85-8.38-7.22l-4.22-.94c-7.68-1.72-10.9-5.02-10.9-10.37,0-6.26,5.64-10.63,13.24-10.63,6.42,0,11.63,3.28,12.94,8.38.08.32.11.7.11,1.15,0,1.02-.67,1.69-1.67,1.69s-1.53-.51-1.83-1.48c-1.1-4.14-4.81-6.42-9.67-6.42-5.24,0-9.37,2.74-9.37,7.14,0,3.52,2.39,5.75,8.14,7.04l4.22.97c7.95,1.8,11.15,4.81,11.15,10.21,0,6.88-5.53,11.31-13.91,11.31-7.3,0-12.51-3.46-13.83-8.35Z"/><path class="cls-2" d="M333.14,216.01c0-8.86,4.94-14.56,12.49-14.56,7.14,0,12.08,5.37,12.08,13.13,0,1.34-.78,2.15-2.09,2.15h-18.83c0,6.55,3.52,10.45,9.08,10.45,3.89,0,6.53-1.64,8.35-5.13.35-.54.75-.78,1.34-.78.94,0,1.58.59,1.58,1.56,0,.3-.11.7-.27,1.1-1.58,3.97-5.64,6.36-10.85,6.36-8.03,0-12.89-5.32-12.89-14.29ZM354.06,213.92c-.08-5.61-3.49-9.35-8.46-9.35s-8.49,3.71-8.78,9.35h17.24Z"/><path class="cls-2" d="M372.36,228.39v-25.14c0-1.07.7-1.8,1.67-1.8s1.69.73,1.69,1.8v3.81h.08c1.21-3.28,4.08-5.61,8.14-5.61s7.04,2.36,8.08,5.88h.08c1.32-3.44,4.59-5.88,8.81-5.88,5.45,0,9.02,3.65,9.02,9.29v17.64c0,1.1-.7,1.91-1.77,1.91s-1.77-.81-1.77-1.91v-16.84c0-4.32-2.42-6.93-6.47-6.93s-6.98,3.17-6.98,7.63v16.14c0,1.1-.7,1.91-1.77,1.91s-1.8-.81-1.8-1.91v-17.16c0-4-2.58-6.61-6.39-6.61-4.11,0-7.06,3.3-7.06,8.06v15.71c0,1.1-.7,1.91-1.77,1.91s-1.77-.81-1.77-1.91Z"/><path class="cls-2" d="M424.77,222.11c0-4.75,3.54-7.68,10.02-8.11l8.73-.54v-2.42c0-4.03-2.55-6.45-6.9-6.45-3.63,0-6.12,1.48-7.49,4.89-.32.64-.81.97-1.5.97-.94,0-1.58-.64-1.58-1.61,0-.54.19-1.18.48-1.8,1.45-3.33,5.34-5.59,10.18-5.59,6.39,0,10.37,3.57,10.37,9.27v17.78c0,1.07-.7,1.8-1.69,1.8s-1.69-.73-1.69-1.8v-3.97h-.08c-1.56,3.46-5.4,5.77-9.56,5.77-5.51,0-9.27-3.3-9.27-8.19ZM443.51,219.34v-3.09l-8.3.56c-4.4.3-6.85,2.23-6.85,5.24s2.63,5.18,6.39,5.18c4.89,0,8.75-3.46,8.75-7.9Z"/><path class="cls-2" d="M462.92,228.39v-25.14c0-1.07.7-1.8,1.67-1.8s1.69.73,1.69,1.8v3.81h.08c1.45-3.41,4.7-5.61,9.24-5.61,6.07,0,9.86,3.95,9.86,10.29v16.65c0,1.13-.72,1.91-1.77,1.91s-1.77-.78-1.77-1.91v-16.09c0-4.89-2.71-7.68-7.33-7.68-4.89,0-8.11,3.49-8.11,8.67v15.09c0,1.13-.72,1.91-1.77,1.91s-1.77-.78-1.77-1.91Z"/><path class="cls-2" d="M502.87,204.87h-2.82c-1.05,0-1.61-.54-1.61-1.48s.56-1.48,1.61-1.48h2.82v-5.53c0-1.15.72-1.91,1.77-1.91s1.77.75,1.77,1.91v5.53h4.13c1.05,0,1.64.54,1.64,1.48s-.59,1.48-1.64,1.48h-4.13v17.97c0,2.74.97,3.95,3.52,4.06l.78.03c1.15.08,1.72.56,1.72,1.42,0,1.07-.62,1.67-2.53,1.67h-.72c-4.24,0-6.31-2.07-6.31-6.47v-18.66Z"/><path class="cls-2" d="M526.51,193.91c0-1.29,1.07-2.34,2.36-2.34s2.39,1.05,2.39,2.34-1.07,2.36-2.39,2.36-2.36-1.05-2.36-2.36ZM527.1,228.39v-25.03c0-1.13.72-1.91,1.77-1.91s1.77.78,1.77,1.91v25.03c0,1.13-.73,1.91-1.77,1.91s-1.77-.78-1.77-1.91Z"/><path class="cls-2" d="M545.51,215.93c0-8.81,5-14.48,12.62-14.48,5.21,0,9.72,2.95,10.88,7.06.08.32.13.64.13.91,0,.94-.59,1.56-1.5,1.56-.81,0-1.24-.35-1.72-1.26-1.37-3.36-4.11-5.13-7.76-5.13-5.45,0-9.02,4.43-9.02,11.28s3.6,11.28,9.05,11.28c3.71,0,6.42-1.77,7.73-5.05.48-.94.91-1.26,1.69-1.26.94,0,1.56.64,1.56,1.58,0,.27-.08.62-.19.99-1.29,4.03-5.67,6.88-10.77,6.88-7.68,0-12.7-5.56-12.7-14.37Z"/><path class="cls-2" d="M605.7,227.94v-34.94c0-1.18.7-1.91,1.83-1.91h10.74c11.6,0,18.37,7.12,18.37,19.36s-6.74,19.39-18.37,19.39h-10.74c-1.13,0-1.83-.73-1.83-1.91ZM618.05,226.51c9.53,0,14.85-5.75,14.85-16.03s-5.32-16.06-14.85-16.06h-8.67v32.09h8.67Z"/><path class="cls-2" d="M650.45,222.11c0-4.75,3.54-7.68,10.02-8.11l8.73-.54v-2.42c0-4.03-2.55-6.45-6.9-6.45-3.62,0-6.12,1.48-7.49,4.89-.32.64-.81.97-1.5.97-.94,0-1.58-.64-1.58-1.61,0-.54.19-1.18.48-1.8,1.45-3.33,5.34-5.59,10.18-5.59,6.39,0,10.37,3.57,10.37,9.27v17.78c0,1.07-.7,1.8-1.69,1.8s-1.69-.73-1.69-1.8v-3.97h-.08c-1.56,3.46-5.4,5.77-9.56,5.77-5.5,0-9.26-3.3-9.26-8.19ZM669.2,219.34v-3.09l-8.3.56c-4.4.3-6.85,2.23-6.85,5.24s2.63,5.18,6.39,5.18c4.89,0,8.75-3.46,8.75-7.9Z"/><path class="cls-2" d="M690.13,204.87h-2.82c-1.05,0-1.61-.54-1.61-1.48s.56-1.48,1.61-1.48h2.82v-5.53c0-1.15.72-1.91,1.77-1.91s1.77.75,1.77,1.91v5.53h4.13c1.05,0,1.64.54,1.64,1.48s-.59,1.48-1.64,1.48h-4.13v17.97c0,2.74.97,3.95,3.52,4.06l.78.03c1.15.08,1.72.56,1.72,1.42,0,1.07-.62,1.67-2.53,1.67h-.72c-4.24,0-6.31-2.07-6.31-6.47v-18.66Z"/><path class="cls-2" d="M712.33,222.11c0-4.75,3.54-7.68,10.02-8.11l8.73-.54v-2.42c0-4.03-2.55-6.45-6.9-6.45-3.63,0-6.12,1.48-7.49,4.89-.32.64-.81.97-1.5.97-.94,0-1.58-.64-1.58-1.61,0-.54.19-1.18.48-1.8,1.45-3.33,5.34-5.59,10.18-5.59,6.39,0,10.37,3.57,10.37,9.27v17.78c0,1.07-.7,1.8-1.69,1.8s-1.69-.73-1.69-1.8v-3.97h-.08c-1.56,3.46-5.4,5.77-9.56,5.77-5.51,0-9.27-3.3-9.27-8.19ZM731.08,219.34v-3.09l-8.3.56c-4.4.3-6.85,2.23-6.85,5.24s2.63,5.18,6.39,5.18c4.89,0,8.75-3.46,8.75-7.9Z"/><path class="cls-2" d="M750.72,228.55v-36.01c0-1.13.75-1.91,1.77-1.91s1.8.78,1.8,1.91v15.2h.08c1.61-3.84,5.18-6.28,9.59-6.28,6.98,0,11.76,5.72,11.76,14.42s-4.75,14.42-11.82,14.42c-4.46,0-8-2.44-9.7-6.36h-.08v4.62c0,1.05-.72,1.75-1.75,1.75s-1.66-.7-1.66-1.75ZM772.1,215.88c0-6.82-3.46-11.28-8.84-11.28s-9,4.59-9,11.28,3.73,11.28,9,11.28,8.84-4.43,8.84-11.28Z"/><path class="cls-2" d="M789.35,222.11c0-4.75,3.54-7.68,10.02-8.11l8.73-.54v-2.42c0-4.03-2.55-6.45-6.9-6.45-3.63,0-6.12,1.48-7.49,4.89-.32.64-.81.97-1.5.97-.94,0-1.58-.64-1.58-1.61,0-.54.19-1.18.48-1.8,1.45-3.33,5.34-5.59,10.18-5.59,6.39,0,10.37,3.57,10.37,9.27v17.78c0,1.07-.7,1.8-1.69,1.8s-1.69-.73-1.69-1.8v-3.97h-.08c-1.56,3.46-5.4,5.77-9.56,5.77-5.51,0-9.27-3.3-9.27-8.19ZM808.1,219.34v-3.09l-8.3.56c-4.4.3-6.85,2.23-6.85,5.24s2.63,5.18,6.39,5.18c4.89,0,8.75-3.46,8.75-7.9Z"/><path class="cls-2" d="M826.67,224.04c-.13-.32-.19-.62-.19-.91,0-.94.7-1.5,1.64-1.5.7,0,1.18.38,1.61,1.26,1.29,2.93,3.57,4.48,7.49,4.48s6.85-1.93,6.85-4.91c0-2.42-1.4-3.71-5.13-4.59l-4.08-.99c-5.4-1.32-7.95-3.73-7.95-7.52,0-4.67,4.14-7.9,10.21-7.9,4.78,0,8.7,2.69,9.48,6.45.05.27.08.48.08.67,0,.89-.54,1.45-1.4,1.45-.75,0-1.24-.27-1.64-1.15-1.07-2.77-3.2-4.46-6.74-4.46-3.79,0-6.45,2.01-6.45,4.78,0,2.26,1.64,3.71,5.32,4.59l4,.97c5.75,1.37,7.92,3.41,7.92,7.44,0,4.83-4.38,8.11-10.74,8.11-5.13,0-9.1-2.47-10.29-6.26Z"/><path class="cls-2" d="M860.9,216.01c0-8.86,4.94-14.56,12.49-14.56,7.14,0,12.08,5.37,12.08,13.13,0,1.34-.78,2.15-2.09,2.15h-18.83c0,6.55,3.52,10.45,9.08,10.45,3.89,0,6.53-1.64,8.35-5.13.35-.54.75-.78,1.34-.78.94,0,1.58.59,1.58,1.56,0,.3-.11.7-.27,1.1-1.58,3.97-5.64,6.36-10.85,6.36-8.03,0-12.89-5.32-12.89-14.29ZM881.82,213.92c-.08-5.61-3.49-9.35-8.46-9.35s-8.49,3.71-8.78,9.35h17.24Z"/></g></svg>